<svg id="eS01fozE3HG1" xmlns="http://www.w3.org/2000/svg" xmlns:xlink="http://www.w3.org/1999/xlink" viewBox="0 0 107.8 107.8" shape-rendering="geometricPrecision" text-rendering="geometricPrecision"><style><![CDATA[#eS01fozE3HG2_tr {animation: eS01fozE3HG2_tr__tr 3000ms linear 1 normal forwards}@keyframes eS01fozE3HG2_tr__tr { 0% {transform: translate(53.935843px,55.505688px) rotate(-200deg)} 20% {transform: translate(53.935843px,55.505688px) rotate(-200deg);animation-timing-function: cubic-bezier(0.49,0,0.46,1)} 66.666667% {transform: translate(53.935843px,55.505688px) rotate(0deg)} 100% {transform: translate(53.935843px,55.505688px) rotate(0deg)}} #eS01fozE3HG2 {animation: eS01fozE3HG2_c_o 3000ms linear 1 normal forwards}@keyframes eS01fozE3HG2_c_o { 0% {opacity: 0} 23.333333% {opacity: 0} 40% {opacity: 1} 100% {opacity: 1}} #eS01fozE3HG3_tr {animation: eS01fozE3HG3_tr__tr 3000ms linear 1 normal forwards}@keyframes eS01fozE3HG3_tr__tr { 0% {transform: translate(62.237259px,55.860769px) rotate(-200deg)} 20% {transform: translate(62.237259px,55.860769px) rotate(-200deg);animation-timing-function: cubic-bezier(0.49,0,0.46,1)} 66.666667% {transform: translate(62.237259px,55.860769px) rotate(0deg)} 100% {transform: translate(62.237259px,55.860769px) rotate(0deg)}} #eS01fozE3HG3 {animation: eS01fozE3HG3_c_o 3000ms linear 1 normal forwards}@keyframes eS01fozE3HG3_c_o { 0% {opacity: 0} 23.333333% {opacity: 0} 40% {opacity: 1} 100% {opacity: 1}} #eS01fozE3HG4_tr {animation: eS01fozE3HG4_tr__tr 3000ms linear 1 normal forwards}@keyframes eS01fozE3HG4_tr__tr { 0% {transform: translate(41.199999px,48.299997px) rotate(-200deg)} 20% {transform: translate(41.199999px,48.299997px) rotate(-200deg);animation-timing-function: cubic-bezier(0.49,0,0.46,1)} 66.666667% {transform: translate(41.199999px,48.299997px) rotate(0deg)} 100% {transform: translate(41.199999px,48.299997px) rotate(0deg)}} #eS01fozE3HG4 {animation: eS01fozE3HG4_c_o 3000ms linear 1 normal forwards}@keyframes eS01fozE3HG4_c_o { 0% {opacity: 0} 23.333333% {opacity: 0} 40% {opacity: 1} 100% {opacity: 1}} #eS01fozE3HG5_ts {animation: eS01fozE3HG5_ts__ts 3000ms linear 1 normal forwards}@keyframes eS01fozE3HG5_ts__ts { 0% {transform: translate(53.699999px,54.799999px) scale(1.5,1.5)} 13.333333% {transform: translate(53.699999px,54.799999px) scale(0.9,0.9);animation-timing-function: cubic-bezier(0.725,-0.045,0.005,1)} 26.666667% {transform: translate(53.699999px,54.799999px) scale(1,1)} 100% {transform: translate(53.699999px,54.799999px) scale(1,1)}} #eS01fozE3HG5 {animation: eS01fozE3HG5_c_o 3000ms linear 1 normal forwards}@keyframes eS01fozE3HG5_c_o { 0% {opacity: 0} 16.666667% {opacity: 1} 100% {opacity: 1}}]]></style><g id="eS01fozE3HG2_tr" transform="translate(53.935843,55.505688) rotate(-200)"><path id="eS01fozE3HG2" d="M45.2,35.7c-8.4-1.5-15,.1-17.6,4.6-2,3.4-1.4,7.9,1.4,12.8.2.4.8.6,1.2.3.4-.2.6-.8.3-1.2-2.5-4.4-3-8.2-1.4-11c2.2-3.8,8.1-5.2,15.8-3.8.5.1.9-.2,1-.7s-.2-1-.7-1v0ZM33.3,58.9c3.4,3.7,7.8,7.2,12.8,10.1c12.1,7,25.1,8.9,31.4,4.5.4-.3.5-.8.2-1.2s-.8-.5-1.2-.2c-5.7,3.9-18,2.1-29.6-4.6-4.9-2.8-9.1-6.2-12.4-9.8-.3-.3-.9-.4-1.2-.1-.3.4-.3,1,0,1.3v0Zm42.2-1c5.5-6.5,7.4-13,4.8-17.5-1.9-3.4-6-5.1-11.5-5.2-.5,0-.9.4-.9.8c0,.5.4.9.8.9c4.9.1,8.4,1.6,10,4.3c2.2,3.8.5,9.6-4.6,15.6-.3.4-.3.9.1,1.2s1,.2,1.3-.1v0Zm-14.1-22C56.4,37,51.2,39,46.1,42C33.6,49.2,25.4,59.9,26.6,67.6c.1.5.5.8,1,.7s.8-.5.7-1c-1-6.9,6.7-17,18.7-23.9c4.9-2.8,10-4.8,14.8-5.9.5-.1.8-.6.7-1-.2-.4-.6-.7-1.1-.6v0Z" transform="translate(-53.935843,-55.505688)" opacity="0" clip-rule="evenodd" fill="#74b1be" fill-rule="evenodd"/></g><g id="eS01fozE3HG3_tr" transform="translate(62.237259,55.860769) rotate(-200)"><path id="eS01fozE3HG3" d="M41.1,73c2.9,8,7.6,12.9,12.8,12.9c3.8,0,7.4-2.6,10.2-7.2.2-.4.1-.9-.3-1.2-.4-.2-.9-.1-1.2.3-2.5,4.1-5.5,6.4-8.7,6.4-4.4,0-8.6-4.4-11.2-11.8-.2-.4-.7-.7-1.1-.5-.4.1-.6.6-.5,1.1Zm26.2-1.6c1.5-4.7,2.3-10.2,2.3-15.9c0-14.2-5-26.5-12.1-29.6-.4-.2-.9,0-1.1.4s0,.9.4,1.1c6.3,2.8,11,14.4,11,28c0,5.5-.8,10.8-2.2,15.4-.1.5.1.9.6,1.1.4.2.9,0,1.1-.5v0Zm16.1-.8c0-2.3-1.8-4.1-4.1-4.1s-4.1,1.8-4.1,4.1s1.8,4.1,4.1,4.1s4.1-1.9,4.1-4.1v0Z" transform="translate(-62.237259,-55.860769)" opacity="0" clip-rule="evenodd" fill="#74b1be" fill-rule="evenodd"/></g><g id="eS01fozE3HG4_tr" transform="translate(41.199999,48.299997) rotate(-200)"><path id="eS01fozE3HG4" d="M28.5,74.7c2.3,0,4.1-1.8,4.1-4.1s-1.8-4.1-4.1-4.1-4.1,1.8-4.1,4.1s1.8,4.1,4.1,4.1v0ZM53.9,30.1c2.3,0,4.1-1.8,4.1-4.1s-1.8-4.1-4.1-4.1-4.1,1.8-4.1,4.1s1.9,4.1,4.1,4.1Z" transform="translate(-41.199999,-48.299997)" opacity="0" clip-rule="evenodd" fill="#74b1be" fill-rule="evenodd"/></g><g id="eS01fozE3HG5_ts" transform="translate(53.699999,54.799999) scale(1.5,1.5)"><path id="eS01fozE3HG5" d="M52.8,45.3c-2.7.2-5.2,1.7-6.8,3.9-.9,1.2-1.5,2.7-1.7,4.2-.1.5-.1.9-.1,1.4c0,.7,0,.9.1,1.4.6,4.3,4.1,7.7,8.5,8.1.3,0,1.5,0,1.8,0c1.2-.1,2.4-.5,3.4-1c.2-.1.2-.1.2-.1s-.7-.9-1.5-2.1L55.2,59l-1.9-2.8c-.6-.9-1.3-1.9-1.9-2.8c0,0,0,1.3,0,2.8v2.8c0,0,0,.2-.2.2s-.1,0-.4,0c0,0-.1,0-.3,0s-.2-.2-.2-.2v-3.8c0,0,0-3.5,0-3.7s.2-.2.2-.2.1,0,.4,0c.4,0,.4,0,.5.1c0,0,1.1,1.6,2.3,3.5l3.7,5.7l1.5,2.3.1-.1c.6-.4,1.4-1.1,1.9-1.7c1.2-1.4,2-3.1,2.2-4.9.1-.5.1-.7.1-1.4s0-.9-.1-1.4c-.6-4.3-4.1-7.7-8.5-8.1-1,0-1.3,0-1.8,0ZM57,51.1c.1,0,.2.1.2.2c0,0,0,1.1,0,3.4v3.3l-.6-.9-.6-.9v-2.4c0-1.6,0-2.5,0-2.5c0-.1.1-.2.2-.2s.1,0,.4,0s.3,0,.4,0Z" transform="translate(-53.699999,-54.799999)" opacity="0" fill="#74b1be"/></g></svg>